<svg id="Layer_1" data-name="Layer 1" xmlns="http://www.w3.org/2000/svg" viewBox="0 0 632.11 125.69"><defs><style>.cls-1{fill:#eb5e1c;}.cls-2{fill:#f5f5f5;}</style></defs><path class="cls-1" d="M62.85,0H569.26a62.85,62.85,0,0,1,62.85,62.85h0a62.84,62.84,0,0,1-62.85,62.84H62.85A62.84,62.84,0,0,1,0,62.85H0A62.85,62.85,0,0,1,62.85,0Z"/><path class="cls-2" d="M38.12,31.05h7.24V85H38.12Zm1.54,47.09H70.1V85H39.66ZM83.48,65.73h25.35v6.32H83.48ZM73.54,85,92,31.05h7.32L81.17,85Zm46,0h-7.7L93.57,31.05h7.48Zm7.14-21.81V31.05h7.25V63.81a21.88,21.88,0,0,0,1.38,8.24,11.38,11.38,0,0,0,4.17,5.16,12.58,12.58,0,0,0,6.7,1.7,11.94,11.94,0,0,0,6.7-1.77A10.8,10.8,0,0,0,157.05,72a21.87,21.87,0,0,0,1.46-8.47V31.05h7.24V63.19a31.93,31.93,0,0,1-1.15,8.71,20.65,20.65,0,0,1-3.47,7.16A16.57,16.57,0,0,1,155,84a21.08,21.08,0,0,1-9,1.77A20.18,20.18,0,0,1,137.24,84a17.69,17.69,0,0,1-6-4.94,22.58,22.58,0,0,1-3.47-7.16A34,34,0,0,1,126.68,63.19ZM177.34,85V31.05h16.88a20.31,20.31,0,0,1,9.24,2.09,21.07,21.07,0,0,1,7.32,5.7,26.16,26.16,0,0,1,4.86,8.63A30.59,30.59,0,0,1,217.41,58,35,35,0,0,1,215.79,69a25,25,0,0,1-4.7,8.55,21.2,21.2,0,0,1-7.24,5.55A23,23,0,0,1,194.22,85Zm7.24-6.86h8.71a17,17,0,0,0,8.79-2.24A15.74,15.74,0,0,0,208,69.12,25.4,25.4,0,0,0,210.17,58a26.33,26.33,0,0,0-1.23-8.33,17.83,17.83,0,0,0-3.4-6.39,14.49,14.49,0,0,0-5.39-4.09,16.58,16.58,0,0,0-6.86-1.38h-8.71Zm58.73,7.7a25.22,25.22,0,0,1-11.49-2.38,18.44,18.44,0,0,1-7.24-6.55,17.71,17.71,0,0,1-2.54-9h7.24a10,10,0,0,0,1.7,5.7,11.6,11.6,0,0,0,4.85,3.93A17.78,17.78,0,0,0,243.38,79a23.1,23.1,0,0,0,6.4-.85,10.23,10.23,0,0,0,4.78-2.93A7.61,7.61,0,0,0,256.33,70a7.89,7.89,0,0,0-.77-3.24A7.47,7.47,0,0,0,253,63.65a11.42,11.42,0,0,0-5.32-2c-.67-.1-1.44-.21-2.31-.31s-1.72-.21-2.7-.31l-2.7-.31c-.87-.1-1.62-.2-2.23-.31a23.89,23.89,0,0,1-6-1.69,13.58,13.58,0,0,1-4.4-3,12.55,12.55,0,0,1-2.69-4.23,15.48,15.48,0,0,1-.85-5.24,14.18,14.18,0,0,1,2.54-8.33,17.34,17.34,0,0,1,7-5.62,22.5,22.5,0,0,1,9.78-2.08,21.73,21.73,0,0,1,9.94,2.15,16.92,16.92,0,0,1,6.78,5.94,16.3,16.3,0,0,1,2.7,8.48h-7.24a9.21,9.21,0,0,0-3.62-7.17A13.5,13.5,0,0,0,243.07,37a16.22,16.22,0,0,0-5.93,1.08,10.38,10.38,0,0,0-4.39,3,7.21,7.21,0,0,0-1.7,4.93,6.37,6.37,0,0,0,2.08,5.24,12,12,0,0,0,5.63,2.16c.56.05,1.28.16,2.16.31s1.9.23,2.93.39,2.05.28,2.92.38,1.67.21,2.24.31a19.67,19.67,0,0,1,7.86,2.62,12.83,12.83,0,0,1,5,5.09,14.25,14.25,0,0,1,1.77,7.24,14,14,0,0,1-2.77,8.78,17.13,17.13,0,0,1-7.4,5.48A27.18,27.18,0,0,1,243.31,85.84Zm49.25-54.79h7.24V85h-7.24Zm1.54,24.2h26V62h-26Zm0-24.2h31.21v6.79H294.1Zm47.16,54.64a17.73,17.73,0,0,1-6.78-1.23,10.56,10.56,0,0,1-4.62-3.93,12.67,12.67,0,0,1-1.62-6.63,10.38,10.38,0,0,1,5-9.25q5-3.23,13.71-3.23h14.41V85.07h-6.32l-.46-5.7A14.93,14.93,0,0,1,349.28,84,17.15,17.15,0,0,1,341.26,85.69Zm.93-5.93a16,16,0,0,0,5.7-1.08,10.71,10.71,0,0,0,4.78-3.62,11.28,11.28,0,0,0,1.92-6.94V66.81h-7.4q-6.24,0-9.24,1.85a5.75,5.75,0,0,0-3,5.16,5.23,5.23,0,0,0,1.93,4.47A8.78,8.78,0,0,0,342.19,79.76Zm12.4-18.34q0-5.18-2.23-7.48t-6.86-2.31a11.05,11.05,0,0,0-4.86.92,6.67,6.67,0,0,0-2.85,2.39,10.16,10.16,0,0,0-1.31,3.32l-6.7-.23A15.08,15.08,0,0,1,332,51.94a12.78,12.78,0,0,1,5-4.55,16.54,16.54,0,0,1,8-1.77A18.82,18.82,0,0,1,354,47.55,12.78,12.78,0,0,1,359.45,53a17.1,17.1,0,0,1,1.92,8.4v1.15h-6.78Zm31.22,24.35a16.2,16.2,0,0,1-8.55-2.24,14.93,14.93,0,0,1-5.78-6.62,25.81,25.81,0,0,1-2.08-11,26.63,26.63,0,0,1,2.08-11.25,14.79,14.79,0,0,1,5.78-6.78,16.2,16.2,0,0,1,8.55-2.23q6.85,0,10.87,3.39a16.4,16.4,0,0,1,5.47,9.48l-6.63.92a15.1,15.1,0,0,0-1.69-3.78,7.64,7.64,0,0,0-3-2.69,9.91,9.91,0,0,0-5-1.08A8.27,8.27,0,0,0,381,53.25a8.71,8.71,0,0,0-2.93,3.31A17.37,17.37,0,0,0,376.64,61a26.61,26.61,0,0,0-.46,4.93,24.29,24.29,0,0,0,.46,4.63A17.43,17.43,0,0,0,378.1,75,9,9,0,0,0,381,78.22a8.73,8.73,0,0,0,4.78,1.23A10.53,10.53,0,0,0,391,78.37a8.19,8.19,0,0,0,2.93-2.85A13.67,13.67,0,0,0,395.52,72l6.63,1.08a17.06,17.06,0,0,1-3,6.78,13.51,13.51,0,0,1-5.47,4.4A18.61,18.61,0,0,1,385.81,85.77Zm20.13-39.3h24.35v6.24H405.94Zm7.17,23.12h6.78v2.77A32.08,32.08,0,0,0,420,75.6a3.65,3.65,0,0,0,1.23,2.23,5.77,5.77,0,0,0,3.55.85h5.47V85H422a8.15,8.15,0,0,1-5.4-1.62,8.69,8.69,0,0,1-2.7-4.55,27.64,27.64,0,0,1-.76-6.93Zm6.78,0h-6.78v-34h6.78Zm16-3.47q0-10.17,4.55-15.26T453.1,45.7q8.17,0,12.72,5.16t4.63,15.26q0,9.55-4.63,14.64t-12.72,5q-8.09,0-12.63-5T435.92,66.12ZM453.1,79.45a10.85,10.85,0,0,0,4.86-1,8.27,8.27,0,0,0,3.24-2.85,11.85,11.85,0,0,0,1.85-4.24,21.63,21.63,0,0,0,.61-5.24,24.39,24.39,0,0,0-.61-5.71A12.48,12.48,0,0,0,461.2,56,8,8,0,0,0,458,53a10.09,10.09,0,0,0-4.86-1.08A9.94,9.94,0,0,0,448.33,53,8,8,0,0,0,445.09,56a14.59,14.59,0,0,0-1.85,4.46,27.63,27.63,0,0,0-.54,5.71,24.49,24.49,0,0,0,.54,5.24,13.92,13.92,0,0,0,1.85,4.24,8.34,8.34,0,0,0,3.24,2.85A10.69,10.69,0,0,0,453.1,79.45Zm46-27a13,13,0,0,0-6.86,1.77,11.83,11.83,0,0,0-4.54,5.16,21.47,21.47,0,0,0-1.85,8.87h-2a57,57,0,0,1,1-9.41,23.72,23.72,0,0,1,2.7-7.09,12.57,12.57,0,0,1,4.63-4.54,14.37,14.37,0,0,1,6.93-1.54v6.78ZM479,85V46.47h6.79V85Zm26-49.63q0-4.54,4.7-4.55,4.54,0,4.55,4.55a4.56,4.56,0,0,1-1.16,3.24,4.59,4.59,0,0,1-3.39,1.15,4.82,4.82,0,0,1-3.54-1.15A4.56,4.56,0,0,1,505,35.37Zm1.31,11.1h6.7V85h-6.7Zm41.71,27.05,6.4.92a17.52,17.52,0,0,1-3.09,6.09,13.8,13.8,0,0,1-5.31,3.93,17.81,17.81,0,0,1-7.48,1.31,15.94,15.94,0,0,1-8.4-2.24,15,15,0,0,1-5.78-6.7,26.8,26.8,0,0,1-2-10.94,27.48,27.48,0,0,1,2-11.18,14.91,14.91,0,0,1,5.78-6.78,15.94,15.94,0,0,1,8.4-2.23,17.44,17.44,0,0,1,6.09,1.08A13.63,13.63,0,0,1,550,50.17a15.83,15.83,0,0,1,3.7,6.55A30.09,30.09,0,0,1,554.92,67h-6.47a24.33,24.33,0,0,0-1.16-9.24,9.1,9.1,0,0,0-3.62-4.7,9.39,9.39,0,0,0-5.09-1.39,8.29,8.29,0,0,0-4.77,1.31,9.34,9.34,0,0,0-3,3.31,18.21,18.21,0,0,0-1.62,4.63,27.71,27.71,0,0,0-.46,5,25.65,25.65,0,0,0,.46,4.77,18.31,18.31,0,0,0,1.62,4.55,9.52,9.52,0,0,0,2.93,3.31,8.76,8.76,0,0,0,4.85,1.24,11.87,11.87,0,0,0,4.86-.85,7.48,7.48,0,0,0,2.93-2.31A13.11,13.11,0,0,0,548.06,73.52ZM524,61.57h28.67V67H524Zm54.22,24.27a20.76,20.76,0,0,1-8.71-1.69,14.26,14.26,0,0,1-5.7-4.62,12.52,12.52,0,0,1-2.08-6.86h6.78a6,6,0,0,0,1.39,4.08,8.41,8.41,0,0,0,3.54,2.31,13.5,13.5,0,0,0,4.62.77,16.32,16.32,0,0,0,4.63-.61,7.89,7.89,0,0,0,3.39-1.93,4.4,4.4,0,0,0,1.31-3.24,4.18,4.18,0,0,0-1.62-3.39,8.19,8.19,0,0,0-4.16-1.77c-.92-.1-1.93-.23-3-.38s-2.15-.29-3.23-.39-2.06-.28-2.93-.38a11.2,11.2,0,0,1-6.78-3.55,9.71,9.71,0,0,1-2.54-6.7,10,10,0,0,1,2-6.25,13,13,0,0,1,5.39-4.16A18.76,18.76,0,0,1,578,45.62a18.07,18.07,0,0,1,7.47,1.46,12.24,12.24,0,0,1,5.24,4.24,11.41,11.41,0,0,1,2,6.55h-6.79a6.33,6.33,0,0,0-2.38-4.54,8.14,8.14,0,0,0-5.48-1.78,14.25,14.25,0,0,0-3.85.54,7.68,7.68,0,0,0-3.16,1.77,4.51,4.51,0,0,0-1.23,3.32,3.93,3.93,0,0,0,1.23,3A7.12,7.12,0,0,0,575,61.65l2,.31c1.07.15,2.28.33,3.62.54s2.46.3,3.39.46a14.09,14.09,0,0,1,5.31,2,9.55,9.55,0,0,1,3.55,3.62,9.81,9.81,0,0,1,1.23,4.94A10.94,10.94,0,0,1,592,80.45a13.28,13.28,0,0,1-5.78,4.08A22.65,22.65,0,0,1,578.24,85.84Z"/></svg>